<svg width="150" height="150" viewBox="0 0 150 150" fill="none" xmlns="http://www.w3.org/2000/svg">
<rect x="4" y="4" width="142" height="142" rx="11" stroke="#02A9E1" stroke-width="8"/>
<path d="M93.656 120L84.056 95.424H48.088L38.488 120H24.536L62.808 25.408H69.72L107.608 120H93.656ZM66.136 47.68L52.44 83.392H79.704L66.136 47.68ZM118.658 80.832C116.098 80.832 114.178 78.976 114.178 76.416C114.178 73.984 116.098 72.064 118.658 72.064C121.026 72.064 123.01 73.984 123.01 76.416C123.01 78.976 121.026 80.832 118.658 80.832ZM110.338 134.656C108.098 134.656 105.602 134.08 104.258 133.248L105.474 128.128C106.882 128.64 108.226 129.024 109.634 129.024C113.794 129.024 115.522 126.208 115.522 121.984V85.696H121.666V121.6C121.666 130.24 117.186 134.656 110.338 134.656Z" fill="#02A9E1"/>
</svg>
